<svg width="152" height="140" viewBox="0 0 152 140" fill="none" xmlns="http://www.w3.org/2000/svg">
<rect x="0.5" width="151" height="140" rx="40" fill="#4F510E"/>
<rect width="97" height="98" transform="translate(27.5 21)" fill="#D3C7B1"/>
<path d="M77.8076 25.5145C76.6697 24.9397 75.3304 24.9397 74.1926 25.5145L33.7759 45.9311C32.4067 46.6228 31.5418 48.0367 31.5418 49.5834C31.5418 51.13 32.4067 52.5439 33.7759 53.2356L74.1926 73.6523C75.3304 74.2271 76.6697 74.2271 77.8076 73.6523L118.224 53.2356C119.594 52.5439 120.458 51.13 120.458 49.5834C120.458 48.0367 119.594 46.6228 118.224 45.9311L77.8076 25.5145Z" fill="#4F510E"/>
<path d="M31.9683 88.5905C32.9666 86.5734 35.3943 85.7558 37.3908 86.7644L76 106.268L114.609 86.7644C116.606 85.7558 119.033 86.5734 120.032 88.5905C121.03 90.6076 120.221 93.0603 118.224 94.0688L77.8075 114.486C76.6696 115.06 75.3303 115.06 74.1925 114.486L33.7758 94.0688C31.7793 93.0603 30.9701 90.6076 31.9683 88.5905Z" fill="#4F510E"/>
<path d="M37.3908 66.3477C35.3943 65.3392 32.9666 66.1567 31.9683 68.1738C30.9701 70.1909 31.7793 72.6436 33.7758 73.6522L74.1925 94.0688C75.3303 94.6436 76.6696 94.6436 77.8075 94.0688L118.224 73.6522C120.221 72.6436 121.03 70.1909 120.032 68.1738C119.033 66.1567 116.606 65.3392 114.609 66.3477L76 85.8513L37.3908 66.3477Z" fill="#4F510E"/>
</svg>
