<svg width="152" height="129" viewBox="0 0 152 129" fill="none" xmlns="http://www.w3.org/2000/svg">
<rect x="0.5" width="151" height="129" rx="40" fill="#4F510E"/>
<rect width="99" height="97" transform="translate(26.5 16)" fill="#D1C8B7"/>
<path d="M53.0683 31.9424L38.8751 39.6682L76.0001 59.8765L90.1933 52.1507L53.0683 31.9424Z" fill="#4F510E"/>
<path d="M80.1251 66.8781L117.25 46.6698V84.7084C117.25 86.1762 116.438 87.5286 115.128 88.2414L80.1251 107.295V66.8781Z" fill="#4F510E"/>
<path d="M34.75 84.7084V46.6697L71.8751 66.8781V107.295L36.8717 88.2414C35.5622 87.5286 34.75 86.1762 34.75 84.7084Z" fill="#4F510E"/>
<path d="M76.4781 19.7449C76.18 19.5826 75.82 19.5826 75.5219 19.7449L61.8068 27.2104L98.9318 47.4187L113.125 39.693L76.4781 19.7449Z" fill="#4F510E"/>
</svg>
