<svg width="148" height="138" viewBox="0 0 148 138" fill="none" xmlns="http://www.w3.org/2000/svg">
<rect width="148" height="138" rx="40" fill="#4F510E"/>
<rect width="98" height="98" transform="translate(25 20)" fill="#D1C8B7"/>
<path d="M74 24.0834C49.1932 24.0834 29.0834 44.1933 29.0834 69C29.0834 71.2552 30.9115 73.0834 33.1667 73.0834H67.875V97.5834C67.875 107.732 76.1018 115.958 86.25 115.958C96.3983 115.958 104.625 107.732 104.625 97.5834V92.4584C104.625 91.9061 104.177 91.4584 103.625 91.4584H93.375C92.8228 91.4584 92.375 91.9061 92.375 92.4584V97.5834C92.375 100.966 89.6328 103.708 86.25 103.708C82.8673 103.708 80.125 100.966 80.125 97.5834V73.0834H114.833C117.089 73.0834 118.917 71.2552 118.917 69C118.917 44.1933 98.8068 24.0834 74 24.0834Z" fill="#4F510E"/>
</svg>
